<svg aria-hidden="true" style="position: absolute; width: 0; height: 0; overflow: hidden;" version="1.1" xmlns="http://www.w3.org/2000/svg" xmlns:xlink="http://www.w3.org/1999/xlink">
<defs>
<symbol id="icon-instagram" viewBox="0 0 34 32">
<path d="M10.214 10.214c1.619-1.619 3.571-2.429 5.857-2.429s4.214 0.81 5.786 2.429c1.619 1.571 2.429 3.5 2.429 5.786s-0.81 4.238-2.429 5.857c-1.571 1.571-3.5 2.357-5.786 2.357s-4.238-0.786-5.857-2.357c-1.571-1.619-2.357-3.571-2.357-5.857s0.786-4.214 2.357-5.786zM12.286 19.786c1.048 1.048 2.31 1.571 3.786 1.571s2.738-0.524 3.786-1.571c1.048-1.048 1.571-2.31 1.571-3.786s-0.524-2.738-1.571-3.786c-1.048-1.048-2.31-1.571-3.786-1.571s-2.738 0.524-3.786 1.571c-1.048 1.048-1.571 2.31-1.571 3.786s0.524 2.738 1.571 3.786zM25.929 6.143c0.381 0.333 0.571 0.762 0.571 1.286s-0.191 0.976-0.571 1.357c-0.334 0.381-0.762 0.571-1.286 0.571s-0.976-0.19-1.357-0.571-0.571-0.833-0.571-1.357c0-0.524 0.19-0.952 0.571-1.286 0.381-0.381 0.833-0.571 1.357-0.571s0.952 0.19 1.286 0.571zM32 9.429c0.048 1.286 0.071 3.476 0.071 6.571s-0.024 5.286-0.071 6.571c-0.143 2.905-1.024 5.167-2.643 6.786-1.572 1.571-3.81 2.405-6.714 2.5-1.286 0.095-3.476 0.143-6.571 0.143s-5.286-0.048-6.571-0.143c-2.905-0.143-5.143-1-6.714-2.571-0.619-0.571-1.119-1.238-1.5-2s-0.667-1.5-0.857-2.214c-0.143-0.715-0.214-1.548-0.214-2.5-0.095-1.286-0.143-3.476-0.143-6.571s0.048-5.31 0.143-6.643c0.143-2.857 1-5.071 2.571-6.643 1.571-1.619 3.81-2.5 6.714-2.643 1.286-0.048 3.476-0.071 6.571-0.071s5.286 0.024 6.571 0.071c2.905 0.143 5.143 1.024 6.714 2.643 1.619 1.571 2.5 3.81 2.643 6.714zM28.571 25.429c0.143-0.381 0.262-0.857 0.357-1.429 0.095-0.619 0.167-1.333 0.214-2.143 0.048-0.857 0.071-1.548 0.071-2.071s0-1.262 0-2.214c0-0.952 0-1.476 0-1.571 0-0.143 0-0.667 0-1.571 0-0.952 0-1.69 0-2.214s-0.024-1.19-0.071-2c-0.048-0.857-0.119-1.571-0.214-2.143-0.095-0.619-0.214-1.119-0.357-1.5-0.571-1.476-1.595-2.5-3.072-3.071-0.381-0.143-0.881-0.262-1.5-0.357-0.571-0.095-1.286-0.167-2.143-0.214-0.81-0.048-1.476-0.071-2-0.071-0.476 0-1.214 0-2.214 0-0.952 0-1.476 0-1.571 0s-0.619 0-1.571 0c-0.952 0-1.69 0-2.214 0s-1.214 0.024-2.071 0.071c-0.81 0.048-1.524 0.119-2.143 0.214-0.571 0.095-1.048 0.214-1.429 0.357-1.476 0.571-2.5 1.595-3.071 3.071-0.143 0.381-0.262 0.881-0.357 1.5-0.095 0.571-0.167 1.286-0.214 2.143-0.048 0.81-0.071 1.476-0.071 2 0 0.476 0 1.214 0 2.214 0 0.952 0 1.476 0 1.571 0 0.19 0 0.643 0 1.357 0 0.667 0 1.238 0 1.714 0 0.429 0 1 0 1.714 0.048 0.714 0.095 1.333 0.143 1.857 0.048 0.476 0.119 0.976 0.214 1.5s0.19 0.952 0.286 1.286c0.619 1.476 1.643 2.5 3.071 3.072 0.381 0.143 0.857 0.262 1.429 0.357 0.619 0.095 1.333 0.167 2.143 0.214 0.857 0.048 1.524 0.071 2 0.071 0.524 0 1.262 0 2.214 0 1 0 1.548 0 1.643 0 0.143 0 0.667 0 1.571 0 0.952 0 1.69 0 2.214 0s1.19-0.024 2-0.071c0.857-0.048 1.571-0.119 2.143-0.214 0.619-0.095 1.119-0.214 1.5-0.357 1.476-0.619 2.5-1.643 3.072-3.072z"></path>
</symbol>
<symbol id="icon-twitter" viewBox="0 0 37 32">
<path  d="M32.786 8.571c0.048 0.19 0.071 0.5 0.071 0.929 0 2.524-0.476 5.048-1.429 7.571-0.952 2.476-2.309 4.762-4.071 6.857-1.714 2.048-3.952 3.714-6.714 5s-5.81 1.929-9.143 1.929c-4.19 0-8.024-1.119-11.5-3.357 0.524 0.048 1.119 0.072 1.786 0.072 3.476 0 6.595-1.071 9.357-3.214-1.667 0-3.143-0.476-4.429-1.429-1.238-1-2.095-2.238-2.571-3.714 0.476 0.048 0.929 0.071 1.357 0.071 0.667 0 1.333-0.071 2-0.214-1.143-0.238-2.167-0.714-3.071-1.429s-1.619-1.571-2.143-2.571c-0.524-1.048-0.786-2.167-0.786-3.357v-0.143c1.048 0.619 2.167 0.952 3.357 1-2.238-1.524-3.357-3.619-3.357-6.286 0-1.333 0.357-2.595 1.071-3.786 1.857 2.333 4.119 4.19 6.786 5.571 2.714 1.381 5.595 2.143 8.643 2.286-0.095-0.571-0.143-1.143-0.143-1.714 0-2.048 0.714-3.81 2.143-5.286 1.476-1.476 3.238-2.214 5.286-2.214 2.19 0 4.024 0.786 5.5 2.357 1.714-0.333 3.309-0.929 4.786-1.786-0.571 1.762-1.667 3.143-3.286 4.143 1.429-0.19 2.857-0.595 4.286-1.214-1.048 1.524-2.309 2.833-3.786 3.929z"></path>
</symbol>
<symbol id="icon-facebook" viewBox="0 0 20 32">
<path  d="M17.438 18h-4.688v14h-6.25v-14h-5.063v-5.813h5.063v-4.375c0-1.667 0.313-3.083 0.938-4.25s1.5-2.042 2.625-2.625c1.167-0.625 2.5-0.938 4-0.938 0.667 0 1.375 0.042 2.125 0.125 0.75 0.042 1.333 0.104 1.75 0.188l0.625 0.063v4.938h-2.5c-1.167 0-2.021 0.313-2.563 0.938-0.5 0.583-0.75 1.313-0.75 2.188v3.75h5.563l-0.875 5.813z"></path>
</symbol>
</defs>
</svg>
